<svg width="24" height="24" viewBox="0 0 24 24" fill="none" xmlns="http://www.w3.org/2000/svg">
<path fill-rule="evenodd" clip-rule="evenodd" d="M18.237 15.116C18.9361 14.4808 19.5882 13.7957 20.188 13.066C20.576 12.594 20.77 12.359 20.77 12C20.77 11.641 20.576 11.406 20.188 10.934C18.768 9.21 15.636 6 12 6C11.16 6 10.348 6.171 9.57698 6.456L12.124 9.003C12.8761 9.03397 13.5891 9.34657 14.1215 9.87877C14.6539 10.411 14.9668 11.1239 14.998 11.876L18.237 15.116ZM9.39298 10.514C9.06701 11.0854 8.93788 11.7481 9.02546 12.4C9.11304 13.052 9.41249 13.6571 9.87769 14.1222C10.3429 14.5873 10.9481 14.8866 11.6001 14.974C12.252 15.0614 12.9147 14.9321 13.486 14.606L15.787 16.909C14.636 17.555 13.353 18 12 18C8.36398 18 5.23198 14.79 3.81198 13.066C3.42398 12.594 3.22998 12.359 3.22998 12C3.22998 11.641 3.42398 11.406 3.81198 10.934C4.48498 10.117 5.54398 8.964 6.85798 7.98L9.39298 10.514Z" fill="#78DAD9"/>
<path d="M5 2L21 18L5 2Z" fill="#78DAD9"/>
<path d="M5 2L21 18" stroke="#78DAD9" stroke-width="2"/>
</svg>
