<svg width="58" height="48" viewBox="0 0 58 48" fill="none" xmlns="http://www.w3.org/2000/svg">
<ellipse cx="29" cy="24" rx="29" ry="24" fill="#78DAD9"/>
<path d="M27.3973 6.50577C26.7695 6.75068 26.2066 7.28073 25.0809 8.34074C23.9555 9.40051 23.3924 9.93078 23.1324 10.522C22.7856 11.3103 22.7856 12.1962 23.1324 12.9845C23.3924 13.5758 23.9553 14.1058 25.081 15.1659C26.206 16.2253 26.7696 16.756 27.3973 17.0008C28.2345 17.3274 29.1752 17.3274 30.0124 17.0008C30.6403 16.7559 31.2031 16.2259 32.3288 15.1659C33.4545 14.1058 34.0157 13.5758 34.2758 12.9845C34.6225 12.1962 34.6225 11.3103 34.2758 10.522C34.0157 9.9307 33.4545 9.40077 32.3288 8.34074C31.2031 7.28071 30.6403 6.75068 30.0124 6.50577C29.1752 6.17923 28.2345 6.17923 27.3973 6.50577Z" fill="#78DAD9"/>
<path d="M16.5251 16.7431C15.8972 16.9881 15.3343 17.5181 14.2086 18.5781C13.0833 19.6378 12.5201 20.1682 12.2601 20.7593C11.9133 21.5477 11.9133 22.4336 12.2601 23.2219C12.5202 23.8132 13.083 24.3432 14.2087 25.4032C15.3337 26.4627 15.8973 26.9934 16.525 27.2382C17.3622 27.5647 18.3029 27.5647 19.1401 27.2382C19.768 26.9933 20.3309 26.4633 21.4565 25.4032C22.5822 24.3432 23.1434 23.8132 23.4035 23.2219C23.7503 22.4336 23.7503 21.5477 23.4035 20.7593C23.1434 20.1681 22.5822 19.6381 21.4565 18.5781C20.3309 17.5181 19.768 16.9881 19.1401 16.7431C18.3029 16.4166 17.3622 16.4166 16.5251 16.7431Z" fill="#78DAD9"/>
<path d="M35.9532 18.5781C34.8278 19.6379 34.2647 20.1681 34.0046 20.7593C33.6579 21.5477 33.6579 22.4336 34.0046 23.2219C34.2647 23.8132 34.8276 24.3432 35.9532 25.4032C37.0783 26.4627 37.6419 26.9934 38.2696 27.2382C39.1067 27.5647 40.0475 27.5647 40.8847 27.2382C41.5126 26.9933 42.0754 26.4633 43.2011 25.4032C44.3268 24.3432 44.888 23.8132 45.1481 23.2219C45.4948 22.4336 45.4948 21.5477 45.1481 20.7593C44.888 20.1681 44.3268 19.6381 43.2011 18.5781C42.0754 17.5181 41.5126 16.9881 40.8847 16.7431C40.0475 16.4166 39.1068 16.4166 38.2696 16.7431C37.6417 16.988 37.0789 17.5181 35.9532 18.5781Z" fill="#78DAD9"/>
<path d="M27.3973 26.9813C26.7695 27.2262 26.2066 27.7562 25.0809 28.8163C23.9555 29.876 23.3924 30.4063 23.1324 30.9975C22.7856 31.7858 22.7856 32.6717 23.1324 33.4601C23.3924 34.0513 23.9553 34.5814 25.081 35.6414C26.206 36.7008 26.7696 37.2315 27.3973 37.4764C28.2345 37.8029 29.1752 37.8029 30.0124 37.4764C30.6403 37.2314 31.2031 36.7014 32.3288 35.6414C33.4545 34.5814 34.0157 34.0513 34.2758 33.4601C34.6225 32.6717 34.6225 31.7858 34.2758 30.9975C34.0157 30.4062 33.4545 29.8763 32.3288 28.8163C31.2031 27.7562 30.6403 27.2262 30.0124 26.9813C29.1752 26.6548 28.2345 26.6548 27.3973 26.9813Z" fill="#78DAD9"/>
<path d="M27.3973 6.50577C26.7695 6.75068 26.2066 7.28073 25.0809 8.34074C23.9555 9.40051 23.3924 9.93078 23.1324 10.522C22.7856 11.3103 22.7856 12.1962 23.1324 12.9845C23.3924 13.5758 23.9553 14.1058 25.081 15.1659C26.206 16.2253 26.7696 16.756 27.3973 17.0008C28.2345 17.3274 29.1752 17.3274 30.0124 17.0008C30.6403 16.7559 31.2031 16.2259 32.3288 15.1659C33.4545 14.1058 34.0157 13.5758 34.2758 12.9845C34.6225 12.1962 34.6225 11.3103 34.2758 10.522C34.0157 9.9307 33.4545 9.40077 32.3288 8.34074C31.2031 7.28071 30.6403 6.75068 30.0124 6.50577C29.1752 6.17923 28.2345 6.17923 27.3973 6.50577Z" stroke="white" stroke-width="3" stroke-linecap="round" stroke-linejoin="round"/>
<path d="M16.5251 16.7431C15.8972 16.9881 15.3343 17.5181 14.2086 18.5781C13.0833 19.6378 12.5201 20.1682 12.2601 20.7593C11.9133 21.5477 11.9133 22.4336 12.2601 23.2219C12.5202 23.8132 13.083 24.3432 14.2087 25.4032C15.3337 26.4627 15.8973 26.9934 16.525 27.2382C17.3622 27.5647 18.3029 27.5647 19.1401 27.2382C19.768 26.9933 20.3309 26.4633 21.4565 25.4032C22.5822 24.3432 23.1434 23.8132 23.4035 23.2219C23.7503 22.4336 23.7503 21.5477 23.4035 20.7593C23.1434 20.1681 22.5822 19.6381 21.4565 18.5781C20.3309 17.5181 19.768 16.9881 19.1401 16.7431C18.3029 16.4166 17.3622 16.4166 16.5251 16.7431Z" stroke="white" stroke-width="3" stroke-linecap="round" stroke-linejoin="round"/>
<path d="M35.9532 18.5781C34.8278 19.6379 34.2647 20.1681 34.0046 20.7593C33.6579 21.5477 33.6579 22.4336 34.0046 23.2219C34.2647 23.8132 34.8276 24.3432 35.9532 25.4032C37.0783 26.4627 37.6419 26.9934 38.2696 27.2382C39.1067 27.5647 40.0475 27.5647 40.8847 27.2382C41.5126 26.9933 42.0754 26.4633 43.2011 25.4032C44.3268 24.3432 44.888 23.8132 45.1481 23.2219C45.4948 22.4336 45.4948 21.5477 45.1481 20.7593C44.888 20.1681 44.3268 19.6381 43.2011 18.5781C42.0754 17.5181 41.5126 16.9881 40.8847 16.7431C40.0475 16.4166 39.1068 16.4166 38.2696 16.7431C37.6417 16.988 37.0789 17.5181 35.9532 18.5781Z" stroke="white" stroke-width="3" stroke-linecap="round" stroke-linejoin="round"/>
<path d="M27.3973 26.9813C26.7695 27.2262 26.2066 27.7562 25.0809 28.8163C23.9555 29.876 23.3924 30.4063 23.1324 30.9975C22.7856 31.7858 22.7856 32.6717 23.1324 33.4601C23.3924 34.0513 23.9553 34.5814 25.081 35.6414C26.206 36.7008 26.7696 37.2315 27.3973 37.4764C28.2345 37.8029 29.1752 37.8029 30.0124 37.4764C30.6403 37.2314 31.2031 36.7014 32.3288 35.6414C33.4545 34.5814 34.0157 34.0513 34.2758 33.4601C34.6225 32.6717 34.6225 31.7858 34.2758 30.9975C34.0157 30.4062 33.4545 29.8763 32.3288 28.8163C31.2031 27.7562 30.6403 27.2262 30.0124 26.9813C29.1752 26.6548 28.2345 26.6548 27.3973 26.9813Z" stroke="white" stroke-width="3" stroke-linecap="round" stroke-linejoin="round"/>
</svg>
