<svg width="36" height="39" viewBox="0 0 36 39" fill="none" xmlns="http://www.w3.org/2000/svg">
<path d="M30 27.6253V18.6099C30 17.7416 29.9993 17.3072 29.9019 16.9031C29.8155 16.5451 29.6737 16.2062 29.4819 15.9C29.2653 15.5545 28.9643 15.268 28.3611 14.6962L21.1611 7.87122C20.0412 6.80963 19.4813 6.2791 18.8511 6.07721C18.2958 5.89931 17.7039 5.89931 17.1486 6.07721C16.5189 6.27895 15.9598 6.80897 14.8415 7.86896L7.63916 14.6962C7.03596 15.268 6.73506 15.5545 6.51855 15.9C6.32669 16.2062 6.18382 16.5451 6.09746 16.9031C6 17.3072 6 17.7416 6 18.6099V27.6253C6 29.1396 6 29.8964 6.22836 30.4937C6.53284 31.29 7.11648 31.9235 7.85156 32.2534C8.40288 32.5008 9.10179 32.5008 10.4996 32.5008C11.8974 32.5008 12.5971 32.5008 13.1484 32.2534C13.8835 31.9235 14.467 31.2902 14.7715 30.4938C14.9998 29.8966 15 29.1394 15 27.6251V26.0001C15 24.2052 16.3431 22.7501 18 22.7501C19.6569 22.7501 21 24.2052 21 26.0001V27.6251C21 29.1394 21 29.8966 21.2284 30.4938C21.5328 31.2902 22.1165 31.9235 22.8516 32.2534C23.4029 32.5008 24.1018 32.5008 25.4996 32.5008C26.8974 32.5008 27.5971 32.5008 28.1484 32.2534C28.8835 31.9235 29.467 31.29 29.7715 30.4937C29.9998 29.8964 30 29.1396 30 27.6253Z" stroke="white" stroke-width="2.5" stroke-linecap="round" stroke-linejoin="round"/>
</svg>
