<svg width="49" height="52" viewBox="0 0 49 52" fill="none" xmlns="http://www.w3.org/2000/svg">
<path d="M28.5833 32.5C28.5833 33.6966 29.4974 34.6666 30.625 34.6666C31.7526 34.6666 32.6666 33.6966 32.6666 32.5C32.6666 31.3034 31.7526 30.3333 30.625 30.3333C29.4974 30.3333 28.5833 31.3034 28.5833 32.5Z" stroke="white" stroke-width="3" stroke-linecap="round" stroke-linejoin="round"/>
<path d="M16.3333 32.5C16.3333 33.6966 17.2474 34.6666 18.375 34.6666C19.5026 34.6666 20.4166 33.6966 20.4166 32.5C20.4166 31.3034 19.5026 30.3333 18.375 30.3333C17.2474 30.3333 16.3333 31.3034 16.3333 32.5Z" stroke="white" stroke-width="3" stroke-linecap="round" stroke-linejoin="round"/>
<path d="M28.5833 19.5C28.5833 20.6966 29.4974 21.6666 30.625 21.6666C31.7526 21.6666 32.6666 20.6966 32.6666 19.5C32.6666 18.3034 31.7526 17.3333 30.625 17.3333C29.4974 17.3333 28.5833 18.3034 28.5833 19.5Z" stroke="white" stroke-width="3" stroke-linecap="round" stroke-linejoin="round"/>
<path d="M16.3333 19.5C16.3333 20.6966 17.2474 21.6666 18.375 21.6666C19.5026 21.6666 20.4166 20.6966 20.4166 19.5C20.4166 18.3034 19.5026 17.3333 18.375 17.3333C17.2474 17.3333 16.3333 18.3034 16.3333 19.5Z" stroke="white" stroke-width="3" stroke-linecap="round" stroke-linejoin="round"/>
</svg>
